<svg xmlns="http://www.w3.org/2000/svg" width="21.5" height="32.313" viewBox="0 0 21.5 32.313">
  <metadata><?xpacket begin="﻿" id="W5M0MpCehiHzreSzNTczkc9d"?>
<x:xmpmeta xmlns:x="adobe:ns:meta/" x:xmptk="Adobe XMP Core 5.6-c138 79.159824, 2016/09/14-01:09:01        ">
   <rdf:RDF xmlns:rdf="http://www.w3.org/1999/02/22-rdf-syntax-ns#">
      <rdf:Description rdf:about=""/>
   </rdf:RDF>
</x:xmpmeta>
                                                                                                    
                                                                                                    
                                                                                                    
                                                                                                    
                                                                                                    
                                                                                                    
                                                                                                    
                                                                                                    
                                                                                                    
                                                                                                    
                                                                                                    
                                                                                                    
                                                                                                    
                                                                                                    
                                                                                                    
                                                                                                    
                                                                                                    
                                                                                                    
                                                                                                    
                                                                                                    
                           
<?xpacket end="w"?></metadata>
<defs>
    <style>
      .cls-1 {
        fill-rule: evenodd;
      }
    </style>
  </defs>
  <path id="_0" data-name="0" class="cls-1" d="M19.5,4.325A9.119,9.119,0,0,0,11.5.35a9.131,9.131,0,0,0-7.95,4q-2.8,4-2.8,12.1,0,8.2,2.75,12.2a9.1,9.1,0,0,0,8,4,9.1,9.1,0,0,0,8-4q2.749-4,2.75-12.2Q22.25,8.3,19.5,4.325Zm-4.125,20.25Q14.05,27.35,11.5,27.35q-2.5,0-3.85-2.775T6.3,16.45A19.035,19.035,0,0,1,7.65,8.375Q9,5.6,11.5,5.6q2.55,0,3.875,2.775A19.362,19.362,0,0,1,16.7,16.45Q16.7,21.8,15.375,24.575ZM13.525,13.6a2.4,2.4,0,0,0-1.975-1,2.424,2.424,0,0,0-2.05,1,3.808,3.808,0,0,0-.75,2.35,3.7,3.7,0,0,0,.75,2.325,2.446,2.446,0,0,0,2.05.975,2.416,2.416,0,0,0,1.975-.975A3.624,3.624,0,0,0,14.3,15.95,3.728,3.728,0,0,0,13.525,13.6Z" transform="translate(-0.75 -0.344)"/>
</svg>
