<svg xmlns="http://www.w3.org/2000/svg" width="20.938" height="31.656" viewBox="0 0 20.938 31.656">
  <metadata><?xpacket begin="﻿" id="W5M0MpCehiHzreSzNTczkc9d"?>
<x:xmpmeta xmlns:x="adobe:ns:meta/" x:xmptk="Adobe XMP Core 5.6-c138 79.159824, 2016/09/14-01:09:01        ">
   <rdf:RDF xmlns:rdf="http://www.w3.org/1999/02/22-rdf-syntax-ns#">
      <rdf:Description rdf:about=""/>
   </rdf:RDF>
</x:xmpmeta>
                                                                                                    
                                                                                                    
                                                                                                    
                                                                                                    
                                                                                                    
                                                                                                    
                                                                                                    
                                                                                                    
                                                                                                    
                                                                                                    
                                                                                                    
                                                                                                    
                                                                                                    
                                                                                                    
                                                                                                    
                                                                                                    
                                                                                                    
                                                                                                    
                                                                                                    
                                                                                                    
                           
<?xpacket end="w"?></metadata>
<defs>
    <style>
      .cls-1 {
        fill-rule: evenodd;
      }
    </style>
  </defs>
  <path id="_2" data-name="2" class="cls-1" d="M19.9,5.325A7.934,7.934,0,0,0,17.75,2.55,9.26,9.26,0,0,0,14.65.9,12.114,12.114,0,0,0,11,.35a14.6,14.6,0,0,0-5.225,1A12.444,12.444,0,0,0,1.15,4.45L4.2,8.75A9.811,9.811,0,0,1,7.35,6.4a7.613,7.613,0,0,1,3.05-.7,4.2,4.2,0,0,1,2.9,1.025A3.715,3.715,0,0,1,14.45,9.65a4.53,4.53,0,0,1-.925,2.65,20.511,20.511,0,0,1-2.35,2.7q-1.425,1.4-3.05,2.925a32.013,32.013,0,0,0-3.05,3.3A17.3,17.3,0,0,0,2.725,25.1,11.278,11.278,0,0,0,1.8,29.7q0,0.3-.025,1.05A3.94,3.94,0,0,0,1.9,32H22.1V26.9H8.8a3.329,3.329,0,0,1,.525-1.65A12.134,12.134,0,0,1,10.6,23.475q0.75-.874,1.6-1.7t1.5-1.425q1.3-1.2,2.55-2.5a24.215,24.215,0,0,0,2.25-2.7,14.058,14.058,0,0,0,1.6-2.875A8.081,8.081,0,0,0,20.7,9.2,8.9,8.9,0,0,0,19.9,5.325Z" transform="translate(-1.156 -0.344)"/>
</svg>
