<svg xmlns="http://www.w3.org/2000/svg" width="20.5" height="32.313" viewBox="0 0 20.5 32.313">
  <metadata><?xpacket begin="﻿" id="W5M0MpCehiHzreSzNTczkc9d"?>
<x:xmpmeta xmlns:x="adobe:ns:meta/" x:xmptk="Adobe XMP Core 5.6-c138 79.159824, 2016/09/14-01:09:01        ">
   <rdf:RDF xmlns:rdf="http://www.w3.org/1999/02/22-rdf-syntax-ns#">
      <rdf:Description rdf:about=""/>
   </rdf:RDF>
</x:xmpmeta>
                                                                                                    
                                                                                                    
                                                                                                    
                                                                                                    
                                                                                                    
                                                                                                    
                                                                                                    
                                                                                                    
                                                                                                    
                                                                                                    
                                                                                                    
                                                                                                    
                                                                                                    
                                                                                                    
                                                                                                    
                                                                                                    
                                                                                                    
                                                                                                    
                                                                                                    
                                                                                                    
                           
<?xpacket end="w"?></metadata>
<defs>
    <style>
      .cls-1 {
        fill-rule: evenodd;
      }
    </style>
  </defs>
  <path id="_3" data-name="3" class="cls-1" d="M15,31.925a9.888,9.888,0,0,0,3.7-2.05,8.225,8.225,0,0,0,2.15-3.125,10.814,10.814,0,0,0,.7-3.95,8.078,8.078,0,0,0-1.325-4.65A8.17,8.17,0,0,0,16.5,15.2a7,7,0,0,0,2.8-2.6,6.656,6.656,0,0,0,1.05-3.55,9.751,9.751,0,0,0-.6-3.45A7.269,7.269,0,0,0,17.9,2.825,8.571,8.571,0,0,0,14.725,1,14.188,14.188,0,0,0,10.2.35a12.984,12.984,0,0,0-5.025.925A21.318,21.318,0,0,0,1.6,3.1L3.8,7.6A12.044,12.044,0,0,1,6.775,6.175,10.939,10.939,0,0,1,10.25,5.6a3.932,3.932,0,0,1,2.825.975A3.519,3.519,0,0,1,14.1,9.25a3.493,3.493,0,0,1-.475,1.9,3.671,3.671,0,0,1-1.225,1.2,5.458,5.458,0,0,1-1.7.65,9.187,9.187,0,0,1-1.9.2H6.5v5.1H8.4a11.046,11.046,0,0,1,4.95.975A3.5,3.5,0,0,1,15.3,22.7a4.691,4.691,0,0,1-1.275,3.35Q12.75,27.4,9.6,27.4a15.259,15.259,0,0,1-4.375-.55A27.58,27.58,0,0,1,2.25,25.8l-1.2,5.15a12.722,12.722,0,0,0,1.55.55q1,0.3,2.175.55t2.45,0.425a17.9,17.9,0,0,0,2.425.175A17.544,17.544,0,0,0,15,31.925Z" transform="translate(-1.063 -0.344)"/>
</svg>
