<svg xmlns="http://www.w3.org/2000/svg" width="20.594" height="31.594" viewBox="0 0 20.594 31.594">
  <metadata><?xpacket begin="﻿" id="W5M0MpCehiHzreSzNTczkc9d"?>
<x:xmpmeta xmlns:x="adobe:ns:meta/" x:xmptk="Adobe XMP Core 5.6-c138 79.159824, 2016/09/14-01:09:01        ">
   <rdf:RDF xmlns:rdf="http://www.w3.org/1999/02/22-rdf-syntax-ns#">
      <rdf:Description rdf:about=""/>
   </rdf:RDF>
</x:xmpmeta>
                                                                                                    
                                                                                                    
                                                                                                    
                                                                                                    
                                                                                                    
                                                                                                    
                                                                                                    
                                                                                                    
                                                                                                    
                                                                                                    
                                                                                                    
                                                                                                    
                                                                                                    
                                                                                                    
                                                                                                    
                                                                                                    
                                                                                                    
                                                                                                    
                                                                                                    
                                                                                                    
                           
<?xpacket end="w"?></metadata>
<defs>
    <style>
      .cls-1 {
        fill-rule: evenodd;
      }
    </style>
  </defs>
  <path id="_5" data-name="5" class="cls-1" d="M14.8,24.55a3.251,3.251,0,0,1-.925,1.425A5.111,5.111,0,0,1,12.025,27a9.355,9.355,0,0,1-2.975.4,16.924,16.924,0,0,1-4.25-.45,14.8,14.8,0,0,1-2.8-1l-1.25,5.1a10.645,10.645,0,0,0,1.425.55,17.846,17.846,0,0,0,2.075.525q1.15,0.225,2.4.375a20.549,20.549,0,0,0,2.45.15,17.281,17.281,0,0,0,5.35-.75,10.954,10.954,0,0,0,3.85-2.1,8.411,8.411,0,0,0,2.3-3.175,10.355,10.355,0,0,0,.75-3.975,9.074,9.074,0,0,0-3.05-7.3q-3.05-2.6-9.25-3,0.1-1.1.25-2.85T9.55,6.15H20.2V1.05H4.4Q4.25,4.8,3.95,8.825T3.15,17.05a35.917,35.917,0,0,1,6.15.425,10.825,10.825,0,0,1,3.625,1.2,3.9,3.9,0,0,1,1.7,1.85A6.421,6.421,0,0,1,15.05,22.9,5.5,5.5,0,0,1,14.8,24.55Z" transform="translate(-0.75 -1.063)"/>
</svg>
