<svg xmlns="http://www.w3.org/2000/svg" width="20.438" height="31.813" viewBox="0 0 20.438 31.813">
  <metadata><?xpacket begin="﻿" id="W5M0MpCehiHzreSzNTczkc9d"?>
<x:xmpmeta xmlns:x="adobe:ns:meta/" x:xmptk="Adobe XMP Core 5.6-c138 79.159824, 2016/09/14-01:09:01        ">
   <rdf:RDF xmlns:rdf="http://www.w3.org/1999/02/22-rdf-syntax-ns#">
      <rdf:Description rdf:about=""/>
   </rdf:RDF>
</x:xmpmeta>
                                                                                                    
                                                                                                    
                                                                                                    
                                                                                                    
                                                                                                    
                                                                                                    
                                                                                                    
                                                                                                    
                                                                                                    
                                                                                                    
                                                                                                    
                                                                                                    
                                                                                                    
                                                                                                    
                                                                                                    
                                                                                                    
                                                                                                    
                                                                                                    
                                                                                                    
                                                                                                    
                           
<?xpacket end="w"?></metadata>
<defs>
    <style>
      .cls-1 {
        fill-rule: evenodd;
      }
    </style>
  </defs>
  <path id="_6" data-name="6" class="cls-1" d="M14.7,18.575A5.561,5.561,0,0,1,15.75,22.2a7.2,7.2,0,0,1-.225,1.75,5.606,5.606,0,0,1-.7,1.65A4.17,4.17,0,0,1,13.6,26.85a3.168,3.168,0,0,1-1.8.5,3.641,3.641,0,0,1-2.175-.625A4.256,4.256,0,0,1,8.25,25.05a8.393,8.393,0,0,1-.7-2.375,18.54,18.54,0,0,1-.2-2.775q0-.5.025-0.95t0.075-.9A5.985,5.985,0,0,1,9.1,17.5a9.969,9.969,0,0,1,1.95-.2A4.5,4.5,0,0,1,14.7,18.575Zm-4.45-6.15a12.749,12.749,0,0,0-1.85.625A7.994,7.994,0,0,1,10.125,9.8,9.68,9.68,0,0,1,12.9,7.675,12.551,12.551,0,0,1,16.4,6.5a25.024,25.024,0,0,1,3.9-.4L19.95,0.85a23.165,23.165,0,0,0-7.65,1.2A15.975,15.975,0,0,0,6.4,5.6a15.7,15.7,0,0,0-3.775,5.8A22.075,22.075,0,0,0,1.3,19.35q0,6.851,2.725,10.075T11.95,32.65a9.026,9.026,0,0,0,7.45-3.5,10.7,10.7,0,0,0,1.775-3.4,12.266,12.266,0,0,0,.575-3.65,13.508,13.508,0,0,0-.525-3.8A8.08,8.08,0,0,0,19.5,15.15,8.5,8.5,0,0,0,16.425,13a11.661,11.661,0,0,0-4.575-.8A6.683,6.683,0,0,0,10.25,12.425Z" transform="translate(-1.313 -0.844)"/>
</svg>
