<svg xmlns="http://www.w3.org/2000/svg" width="21.25" height="32.344" viewBox="0 0 21.25 32.344">
  <metadata><?xpacket begin="﻿" id="W5M0MpCehiHzreSzNTczkc9d"?>
<x:xmpmeta xmlns:x="adobe:ns:meta/" x:xmptk="Adobe XMP Core 5.6-c138 79.159824, 2016/09/14-01:09:01        ">
   <rdf:RDF xmlns:rdf="http://www.w3.org/1999/02/22-rdf-syntax-ns#">
      <rdf:Description rdf:about=""/>
   </rdf:RDF>
</x:xmpmeta>
                                                                                                    
                                                                                                    
                                                                                                    
                                                                                                    
                                                                                                    
                                                                                                    
                                                                                                    
                                                                                                    
                                                                                                    
                                                                                                    
                                                                                                    
                                                                                                    
                                                                                                    
                                                                                                    
                                                                                                    
                                                                                                    
                                                                                                    
                                                                                                    
                                                                                                    
                                                                                                    
                           
<?xpacket end="w"?></metadata>
<defs>
    <style>
      .cls-1 {
        fill-rule: evenodd;
      }
    </style>
  </defs>
  <path id="_8" data-name="8" class="cls-1" d="M18.675,2.5A10.666,10.666,0,0,0,11.6.3a11.505,11.505,0,0,0-4.7.85A8.788,8.788,0,0,0,3.85,3.3,8.159,8.159,0,0,0,2.175,6.225,10.154,10.154,0,0,0,1.65,9.35a8.345,8.345,0,0,0,.8,3.6,8.373,8.373,0,0,0,3,3.2A10.4,10.4,0,0,0,2,19.825,9.308,9.308,0,0,0,.9,24.25a8.1,8.1,0,0,0,.75,3.525,7.3,7.3,0,0,0,2.125,2.65,9.868,9.868,0,0,0,3.3,1.65,14.917,14.917,0,0,0,4.275.575,13.968,13.968,0,0,0,5.05-.8,9.942,9.942,0,0,0,3.325-2.025,7.384,7.384,0,0,0,1.85-2.775A8.74,8.74,0,0,0,22.15,24a8.179,8.179,0,0,0-1.175-4.3,10.949,10.949,0,0,0-4.025-3.6,8.753,8.753,0,0,0,3.3-3.475A9.261,9.261,0,0,0,21.3,8.4,7.305,7.305,0,0,0,18.675,2.5Zm-3.65,23.975A5.507,5.507,0,0,1,11.45,27.55a5.624,5.624,0,0,1-3.375-1.025A3.487,3.487,0,0,1,6.65,23.5a5.858,5.858,0,0,1,.75-2.725A8.413,8.413,0,0,1,9.55,18.2q1.8,0.7,3.1,1.325a12.627,12.627,0,0,1,2.125,1.25,4,4,0,0,1,1.2,1.375,3.867,3.867,0,0,1,.375,1.75A3.223,3.223,0,0,1,15.025,26.475Zm-0.737-20.2A3.027,3.027,0,0,1,15.5,8.9a6.244,6.244,0,0,1-.65,2.675,6.864,6.864,0,0,1-2.2,2.525,14.477,14.477,0,0,1-4.245-2.3A3.678,3.678,0,0,1,7.2,8.95,3.045,3.045,0,0,1,8.463,6.3a4.893,4.893,0,0,1,2.913-.9A4.844,4.844,0,0,1,14.288,6.275Z" transform="translate(-0.906 -0.313)"/>
</svg>
