<svg xmlns="http://www.w3.org/2000/svg" width="20.594" height="31.844" viewBox="0 0 20.594 31.844">
  <metadata><?xpacket begin="﻿" id="W5M0MpCehiHzreSzNTczkc9d"?>
<x:xmpmeta xmlns:x="adobe:ns:meta/" x:xmptk="Adobe XMP Core 5.6-c138 79.159824, 2016/09/14-01:09:01        ">
   <rdf:RDF xmlns:rdf="http://www.w3.org/1999/02/22-rdf-syntax-ns#">
      <rdf:Description rdf:about=""/>
   </rdf:RDF>
</x:xmpmeta>
                                                                                                    
                                                                                                    
                                                                                                    
                                                                                                    
                                                                                                    
                                                                                                    
                                                                                                    
                                                                                                    
                                                                                                    
                                                                                                    
                                                                                                    
                                                                                                    
                                                                                                    
                                                                                                    
                                                                                                    
                                                                                                    
                                                                                                    
                                                                                                    
                                                                                                    
                                                                                                    
                           
<?xpacket end="w"?></metadata>
<defs>
    <style>
      .cls-1 {
        fill-rule: evenodd;
      }
    </style>
  </defs>
  <path id="_9" data-name="9" class="cls-1" d="M8.33,14.3a5.347,5.347,0,0,1-1.08-3.6,8.787,8.787,0,0,1,.221-2,4.984,4.984,0,0,1,.688-1.65A3.5,3.5,0,0,1,9.386,5.925,3.735,3.735,0,0,1,11.229,5.5a3.444,3.444,0,0,1,2.136.65,4.668,4.668,0,0,1,1.376,1.7,8.6,8.6,0,0,1,.737,2.325A14.732,14.732,0,0,1,15.7,12.7q0,0.551-.025,1.125T15.6,14.8a5.788,5.788,0,0,1-1.67.55,10.3,10.3,0,0,1-1.964.2A4.587,4.587,0,0,1,8.33,14.3Zm7.27,5.5a9.507,9.507,0,0,1-4.777,5.275A17.512,17.512,0,0,1,3.15,26.8l0.2,5.3a22.505,22.505,0,0,0,7.625-1.225,16.042,16.042,0,0,0,5.85-3.575,15.572,15.572,0,0,0,3.725-5.825,22.677,22.677,0,0,0,1.3-7.975q0-6.25-2.75-9.75t-7.95-3.5a9.2,9.2,0,0,0-4.35.975,9.662,9.662,0,0,0-3.075,2.5,10.866,10.866,0,0,0-1.85,3.4A11.566,11.566,0,0,0,1.25,10.8a12.148,12.148,0,0,0,.584,3.825,8.258,8.258,0,0,0,1.86,3.125,8.759,8.759,0,0,0,3.3,2.125,13.665,13.665,0,0,0,4.89.775,9.942,9.942,0,0,0,3.72-.85h0Z" transform="translate(-1.25 -0.25)"/>
</svg>
